HIERARCHY
ROOT Root
{
  OFFSET 20.346 11.8686 2.25538
  CHANNELS 6 Xposition Yposition Zposition Zrotation Xrotation Yrotation
  JOINT Spine
  {
    OFFSET 5.3114 0 0
    CHANNELS 3 Zrotation Xrotation Yrotation
    JOINT Spine1
    {
      OFFSET 2.79004 0 0
      CHANNELS 3 Zrotation Xrotation Yrotation
      JOINT Neck
      {
        OFFSET 1.43377 0 0
        CHANNELS 3 Zrotation Xrotation Yrotation
        JOINT Head
        {
          OFFSET 1.86043 0 0
          CHANNELS 3 Zrotation Xrotation Yrotation
          End Site
          {
            OFFSET 0 0 0
          }
        }
      }
      JOINT LeftArm
      {
        OFFSET 0.0387506 0 2.55754
        CHANNELS 3 Zrotation Xrotation Yrotation
        JOINT LeftForeArm
        {
          OFFSET 4.24845 0 0
          CHANNELS 3 Zrotation Xrotation Yrotation
          JOINT LeftHand
          {
            OFFSET 4.01008 0 0
            CHANNELS 3 Zrotation Xrotation Yrotation
            End Site
            {
              OFFSET 0 0 0
            }
          }
        }
      }
      JOINT RightArm
      {
        OFFSET 0.0387506 0 -2.55754
        CHANNELS 3 Zrotation Xrotation Yrotation
        JOINT RightForeArm
        {
          OFFSET -4.24845 0 0
          CHANNELS 3 Zrotation Xrotation Yrotation
          JOINT RightHand
          {
            OFFSET -4.01009 0 0
            CHANNELS 3 Zrotation Xrotation Yrotation
            End Site
            {
              OFFSET 0 0 0
            }
          }
        }
      }
    }
  }
  JOINT LeftUpLeg
  {
    OFFSET -1.23318 0 2.05692
    CHANNELS 3 Zrotation Xrotation Yrotation
    JOINT LeftLeg
    {
      OFFSET 5.46397 0 0
      CHANNELS 3 Zrotation Xrotation Yrotation
      JOINT LeftFoot
      {
        OFFSET 4.68898 0 0
        CHANNELS 3 Zrotation Xrotation Yrotation
        End Site
        {
          OFFSET 0 0 0
        }
      }
    }
  }
  JOINT RightUpLeg
  {
    OFFSET -1.24454 0 -2.05007
    CHANNELS 3 Zrotation Xrotation Yrotation
    JOINT RightLeg
    {
      OFFSET -5.46397 0 0
      CHANNELS 3 Zrotation Xrotation Yrotation
      JOINT RightFoot
      {
        OFFSET -4.68901 0 0
        CHANNELS 3 Zrotation Xrotation Yrotation
        End Site
        {
          OFFSET 0 0 0
        }
      }
    }
  }
}
MOTION
Frames:	17
Frame Time:	0.0416667
19.2158 12.206 2.88001 99.5889 4.04913 -5.45705 -0.219274 -1.03892 -2.10302 5.91604 -0.210861 2.3283 -17.3911 -2.03315 -7.17422 23.2372 -3.20375 12.8824 -34.5075 -37.679 -150.089 51.7999 9.07604 28.567 -2.59306 -27.3442 173.824 164.728 -24.6484 -141.484 50.3799 8.4733 27.9008 0.408857 4.66995 174.445 -0.535074 1.87313 177.415 -7.42141 -0.655915 -0.924414 24.8591 -12.8109 -176.735 92.3892 1.10599 172.852 -83.3596 -1.26129 -3.32323 -10.2863 11.0759 178.699 
19.0645 12.1791 2.89442 99.9692 3.83416 -5.42739 -0.189475 -1.31889 -1.53564 5.32595 -0.29197 2.45586 -19.7399 -2.08385 -6.87694 25.0069 -3.31416 12.4978 -37.0131 -38.5809 -147.672 52.8801 9.54699 29.0645 -2.79575 -29.1404 173.728 161.415 -26.7123 -138.69 52.5129 9.39953 28.9065 0.303713 3.47294 174.453 0.0323438 1.88232 177.313 -7.09587 -0.669115 -0.926993 25.3175 -12.6542 -176.633 92.6327 -0.281242 171.969 -82.7375 -1.17568 -3.29723 -11.2023 9.74176 178.653 
18.9063 12.1429 2.90391 100.825 3.82356 -5.43242 -0.394561 -1.8095 -1.10984 4.45016 -0.426834 2.91938 -22.1256 -2.20487 -6.40721 26.5553 -3.55028 11.949 -39.4539 -39.2132 -145.686 53.6126 9.87147 29.3981 -2.86595 -29.7421 173.692 158.22 -29.2522 -135.574 53.8384 9.99916 29.5219 0.135976 1.55636 174.461 -0.658262 2.31638 177.333 -8.38443 -0.71023 -0.936405 25.9848 -11.7572 -176.908 92.6778 -1.42865 171.346 -82.6135 -1.09138 -3.28674 -12.0791 8.21539 178.596 
18.7379 12.1053 2.91154 102.169 3.75352 -5.48727 -0.907008 -2.13516 -0.639011 3.48367 -0.524382 3.41069 -23.6348 -2.30208 -6.04293 26.2983 -3.85502 11.4666 -42.4712 -40.0797 -144.168 53.586 9.8598 29.3861 -2.83368 -29.445 173.707 153.879 -32.1821 -132.898 54.0322 10.0589 29.5871 0.0191739 0.219452 174.463 -1.46534 3.02791 177.351 -8.84382 -0.725421 -0.94088 26.0219 -11.1091 -177.217 92.105 -2.14105 170.722 -82.6953 -1.07221 -3.29321 -11.3366 9.23335 178.467 
18.5591 12.0784 2.91132 103.929 3.6393 -5.69247 -1.5699 -2.17339 0.105862 2.90682 -0.543283 3.68153 -24.9127 -2.31868 -5.98489 24.9708 -4.15866 11.2418 -47.3999 -40.7838 -143.586 52.7151 9.47437 28.9886 -2.73296 -28.5841 173.757 148.95 -35.2957 -130.274 53.7127 9.91964 29.4469 -0.129752 -1.48512 174.461 -3.04471 3.3815 177.552 -10.0284 -0.75276 -0.948512 26.5614 -10.4416 -177.442 90.5569 -2.39532 170.17 -83.6996 -1.05809 -3.34384 -10.1884 10.8267 178.286 
18.369 12.0794 2.91223 105.679 3.37455 -6.01495 -1.81761 -1.83972 1.01368 2.27153 -0.464431 3.77893 -25.8455 -2.27863 -6.28001 23.5324 -4.40939 11.4643 -52.4857 -41.942 -142.841 51.6608 9.0162 28.5027 -2.86124 -29.7076 173.696 143.667 -38.447 -128.023 52.7555 9.49548 29.0131 -0.35455 -4.05158 174.449 -4.37312 3.3314 177.991 -10.7879 -0.755382 -0.949965 26.8447 -9.86911 -177.665 89.0035 -2.28304 169.584 -84.6904 -1.02127 -3.39144 -10.0363 11.4686 178.224 
18.1618 12.119 2.90999 107.49 2.90862 -6.42501 -2.0281 -1.4101 1.86722 1.86625 -0.352349 3.88213 -26.1969 -2.23891 -6.52814 21.577 -4.71228 11.4868 -58.9203 -42.5598 -143.297 50.2132 8.4035 27.822 -3.14573 -32.0973 173.55 137.749 -41.8515 -126.773 51.1758 8.80931 28.276 -0.611645 -6.96264 174.422 -5.97582 3.44028 178.722 -12.1454 -0.755704 -0.955338 26.2089 -9.89104 -177.874 87.9889 -2.15058 168.772 -84.969 -0.993933 -3.40703 -9.81286 12.3583 178.117 
17.9266 12.225 2.89426 109.639 2.22242 -6.96484 -2.65641 -0.802869 2.87246 1.21692 -0.19967 3.31837 -26.3437 -2.32819 -6.72386 20.1873 -5.11342 11.8996 -64.5128 -42.9088 -143.906 49.1739 7.97547 27.3282 -3.5439 -35.2422 173.329 131.232 -44.3149 -127.819 49.8687 8.26052 27.6598 -0.821771 -9.31176 174.389 -8.00512 3.53339 179.79 -13.6569 -0.735309 -0.967281 24.4451 -10.4687 -178.129 87.6846 -2.09725 167.557 -84.0832 -0.998367 -3.37888 -9.00579 13.5529 177.837 
17.6721 12.3969 2.87922 112.147 1.61682 -7.55085 -3.51768 -0.188945 4.09491 0.195413 -0.0416183 2.20218 -26.0455 -2.62366 -7.26351 18.5135 -5.98607 13.0429 -67.3251 -43.0438 -144.129 50.3453 8.45711 27.8867 -4.03747 -38.8263 173.031 123.982 -44.8138 -131.996 50.1763 8.38709 27.8071 -0.95421 -10.7745 174.363 -10.5981 3.15083 -179.077 -14.8376 -0.686315 -0.95225 21.1692 -12.3578 -178.311 88.0801 -2.05742 166.376 -81.8078 -1.05314 -3.27936 -7.52342 14.4257 177.39 
17.3954 12.6766 2.87654 114.241 1.92172 -8.39232 -4.09395 -0.120375 5.90466 -0.479554 -0.0148657 1.11246 -25.8156 -2.92795 -8.25498 16.5739 -7.18617 13.9926 -68.2021 -41.7414 -145.388 53.8632 9.9944 29.5195 -4.22147 -40.0766 172.914 117.855 -43.9742 -137.813 52.9381 9.57062 29.0914 -1.10871 -12.46 174.329 -12.6832 1.49281 -177.793 -15.6705 -0.631541 -0.954212 17.223 -17.064 -178.282 90.4295 -2.26162 165.916 -78.1213 -1.13815 -3.10447 -5.51781 15.4799 176.814 
17.099 13.0106 2.88157 115.53 3.56313 -8.68055 -4.51988 -0.838475 6.76732 -0.366869 -0.207778 0.808572 -25.9788 -3.21884 -8.83241 15.4118 -8.29633 13.4776 -67.2211 -39.6081 -147.461 58.1991 12.0092 31.4056 -4.21549 -40.0371 172.918 114.385 -42.5856 -143.864 57.1881 11.5349 30.9863 -1.13081 -12.6987 174.324 -13.7471 -1.23796 -177.186 -15.7041 -0.560505 -0.956637 12.0525 -23.1641 -179.048 93.8321 -3.24977 166.469 -74.86 -1.18159 -2.92492 -3.0942 15.7857 176.219 
16.8074 13.3475 2.88323 116.042 5.38182 -8.45999 -4.74995 -1.21068 6.75428 -0.295428 -0.307453 0.561998 -25.8602 -3.55777 -9.11417 14.8489 -9.21988 12.9507 -64.7421 -38.5907 -149.667 61.4164 13.6144 32.7314 -4.2815 -40.4766 172.876 114.792 -41.3755 -147.995 60.9551 13.3769 32.5436 -0.955898 -10.7922 174.363 -15.3207 -3.90014 -177.135 -17.7128 -0.58827 -0.981256 9.41433 -27.3152 -179.702 97.7603 -4.56631 167.186 -71.9631 -1.2019 -2.76173 -0.813018 15.5253 175.738 
16.5353 13.6603 2.87269 115.99 6.91892 -8.24194 -5.04906 -1.09429 6.50571 0.00777712 -0.26829 0.393086 -25.5105 -3.94571 -9.314 14.52 -10.0968 12.651 -61.5856 -39.2926 -151.578 62.9777 14.421 33.3431 -4.35597 -40.98 172.827 117.472 -39.9864 -150.856 64.2193 15.0749 33.8185 -0.792324 -8.9844 174.394 -17.8841 -3.84924 -177.058 -22.2538 -0.680976 -1.04931 9.03986 -25.8622 179.859 102.058 -5.63736 167.733 -68.8407 -1.23531 -2.60618 0.917787 15.1876 175.438 
16.292 13.9332 2.85902 115.781 8.22344 -8.09947 -5.52551 -0.701384 6.15347 0.557994 -0.149223 0.218826 -25.259 -4.31027 -9.58242 14.3739 -10.8943 12.8266 -58.5846 -40.6354 -153.454 64.1717 15.0505 33.7967 -4.42097 -41.389 172.784 120.523 -37.0929 -154.234 68.3308 17.3175 35.2845 -1.34798 -15.0174 174.266 -20.9802 -3.07458 -176.926 -27.9114 -0.830116 -1.17141 12.0811 -21.5392 -179.501 106.248 -6.01633 168.438 -65.711 -1.28117 -2.46365 2.21563 14.8822 175.296 
16.0779 14.1801 2.84948 115.367 9.31649 -7.91787 -5.72741 -0.932813 5.93917 0.750764 -0.21359 0.625935 -25.1874 -4.15382 -10.3912 14.4885 -10.8811 12.9485 -55.9822 -39.6388 -155.817 65.7232 15.8823 34.3708 -4.27099 -40.4059 172.882 123.816 -35.1482 -157.544 72.122 19.4698 36.5147 -1.47213 -16.3199 174.229 -24.2076 -2.74503 -177.072 -34.0698 -0.997653 -1.30595 14.8424 -19.6412 -178.905 110.421 -5.80275 169.375 -62.6414 -1.31671 -2.33165 2.65562 14.6641 175.407 
15.8874 14.4117 2.84345 114.714 10.2169 -7.68686 -6.11067 -1.00096 5.61928 0.934795 -0.230449 0.685222 -24.5579 -4.22642 -10.6423 14.8579 -10.9585 12.8513 -53.7 -38.9869 -158.371 66.1808 16.1307 34.5366 -4.02358 -38.7299 173.04 126.774 -33.2014 -160.185 74.0877 20.6147 37.0982 -1.21346 -13.5867 174.302 -27.5375 -2.28067 -177.29 -41.1298 -1.18812 -1.46271 18.4632 -18.1506 -178.145 114.67 -5.25781 170.381 -59.3746 -1.34145 -2.19395 2.17275 14.2168 175.763 
15.7132 14.6152 2.84528 113.82 10.8789 -7.4016 -6.63418 -1.16177 5.17144 1.2744 -0.273916 0.686264 -23.8917 -4.29088 -10.54 16.0336 -10.7656 12.6112 -51.2884 -38.8539 -159.99 66.088 16.0803 34.5026 -3.86958 -37.6453 173.135 129.793 -31.7275 -161.837 74.7639 21.0127 37.2902 -1.0665 -11.9996 174.338 -30.8687 -1.74304 -177.396 -48.6149 -1.36993 -1.65036 23.2923 -16.4609 -177.283 118.91 -4.66499 171.212 -56.1356 -1.33653 -2.06115 1.72174 13.7168 176.091 
